<svg id="Layer_1" data-name="Layer 1" xmlns="http://www.w3.org/2000/svg" viewBox="0 0 189.99 171.26"><defs><style>.cls-1{fill:#fa578e;}</style></defs><title>revice</title><path class="cls-1" d="M.27,522.54l74.26-42.15,74.25-42.14-.1,13.7L99,480.15,24.31,522.53l74,43.48L147.63,595l-.1,14.06Z" transform="translate(-0.01 -437.99)"/><path class="cls-1" d="M148.65,438.48l-.1,13.39L98.92,480,24.45,522.3l-.41.24.41.24,73.83,43.35L147.49,595l-.1,13.74L74,565.65.55,522.53l74.05-42,74.05-42m.28-.47L74.46,480.26,0,522.52l73.83,43.36,73.83,43.36.11-14.38-49.36-29L24.59,522.53l74.47-42.27L148.82,452l.1-14Z" transform="translate(-0.01 -437.99)"/><path class="cls-1" d="M41.35,522.54l74.25-42.15,74.26-42.14-.1,13.7-49.7,28.2L65.39,522.53,188.7,595,188.6,609Z" transform="translate(-0.01 -437.99)"/><path class="cls-1" d="M189.72,438.48l-.1,13.38L165.07,465.8,140,480,65.53,522.3l-.42.24.41.24,73.84,43.35,24.86,14.6L188.57,595l-.1,13.74L164.4,594.63l-49.36-29L41.62,522.54l74.05-42,49.77-28.25,24.28-13.78M190,438l-24.7,14-49.77,28.25L41.07,522.52l73.83,43.37,49.35,29,24.48,14.38.11-14.38-24.49-14.38-24.86-14.6L65.66,522.53l74.46-42.27L165.19,466l24.7-14,.1-14Z" transform="translate(-0.01 -437.99)"/><path class="cls-1" d="M85.9,522.94l93.16-52.87-.07,8.54-12.52,25.88-18.74-8.31-.49,24.89.09,29.37L166.47,538l11.86,30.4-.06,8.77Z" transform="translate(-0.01 -437.99)"/><path class="cls-1" d="M178.92,470.31l-.06,8.26-12.45,25.74L148,496.14l-.37-.17v.41l-.49,24.69.09,29.13v.5l.42-.27,18.79-12.19,11.78,30.22-.06,8.52-15-8.79-31-18.21-46-27,46.38-26.32,31.26-17.77,15.11-8.57m.28-.47-15.52,8.8L132.41,496.4,85.62,523,132,550.19l31,18.21,15.38,9,.07-9-11.93-30.58-19.07,12.37-.09-29.13.48-24.68,18.69,8.28,12.59-26,.05-8.81Z" transform="translate(-0.01 -437.99)"/></svg>