<svg xmlns="http://www.w3.org/2000/svg" width="261.865" height="156.716" viewBox="0 0 261.865 156.716"><defs><style>.a{fill:#6a73e2;}.b,.c{fill:#5862af;}.c{stroke:#6a73e2;stroke-miterlimit:10;}.d{fill:#fa578e;}</style></defs><g transform="translate(0 0)"><path class="a" d="M151.068,144.255,257.055,82.011l6.856-4.025L245.8,67.71l-7.543-4.282L150.1,13.4,150.01.86l67.949,38.565,31.428,17.836,7.543,4.282,11.251,6.386,17.73,10.062-134.746,79.13Z" transform="translate(-112.294 -0.624)"/><path class="a" d="M857.542,455.62,925.3,494.087l20.177,11.45,11.251,6.386,7.543,4.274,11.251,6.384,9.461,5.37,8.078,4.583-8.729,5.126-8.815,5.177-11.251,6.607-7.543,4.43-11.261,6.6-19.6,11.508L858.7,611.446l-.1-12.571,45.034-26.452,30.847-18.1,11.251-6.607,7.543-4.43,11.251-6.607,6.668-3.915.375-.219-.38-.216-6.668-3.784-11.261-6.4-7.543-4.274-11.251-6.386-31.428-17.836-45.4-25.781-.093-12.247m-.252-.432.1,12.822,45.54,25.844,31.428,17.836,11.251,6.386,7.543,4.274,11.251,6.386,6.668,3.784-6.668,3.915-11.251,6.607-7.543,4.43-11.251,6.607-30.847,18.1-45.158,26.545.1,13.157,67.562-39.677L945.6,560.7l11.251-6.607,7.543-4.43,11.251-6.607,8.815-5.177,9.1-5.345-8.458-4.8-9.461-5.37L964.4,515.979l-7.543-4.274L945.6,505.318l-20.177-11.465L857.293,455.18Z" transform="translate(-819.7 -455.167)"/><path class="a" d="M1.568,144.255,107.555,82.011l6.856-4.025L46.083,39.207.6,13.4.51.86,107.429,61.543l11.251,6.386,17.73,10.062-10.188,5.984L118.68,88.4,1.664,157.121Z" transform="translate(-0.382 -0.624)"/><path class="a" d="M708.034,455.642l22.22,12.611L775.8,494.1l38.97,22.125,11.251,6.384,7.543,4.274,10,5.672-10.012,5.876L826,542.86l-11.251,6.607-38.379,22.545-45.155,26.52L709.19,611.468l-.1-12.571,22.283-13.086,22.751-13.361,49.641-29.165,11.251-6.607,6.668-3.915.375-.219-.38-.216-6.668-3.784-11.251-6.386-50.224-28.494L730.6,480.641l-22.469-12.752-.093-12.247m-.252-.432.1,12.822,22.6,12.822,22.942,13.021,50.221,28.5,11.251,6.386,6.668,3.784-6.668,3.915-11.251,6.607L754,572.229l-22.751,13.361-22.407,13.159.1,13.157,22.4-13.157,45.158-26.52,38.389-22.537,11.251-6.607,7.543-4.427,10.376-6.094-10.376-5.888-7.543-4.274L814.89,516l-38.97-22.125-45.542-25.841-22.6-12.822Z" transform="translate(-707.78 -455.19)"/><path class="a" d="M50.494,206.681,63.055,175.11l15.8,15.176L79.4,165.73,78.5,140.6,61.8,145.674,49.888,124.5l-.058-7.809,85.247,48.381-9.536,5.6L50.554,214.706Z" transform="translate(-37.302 -87.332)"/><path class="a" d="M757.354,571.443l13.828,7.844L799.8,595.526l32.433,18.411,9.991,5.67-9.35,5.494-32.72,19.216-28.373,16.662-13.7,8.045-.06-7.794L770.5,629.853,785.966,644.7l.412.4.012-.573.536-24.247v-.015l-.9-24.956v-.324l-.312.093-16.44,4.993L757.424,579.01l-.058-7.558m-.252-.432.06,8.058,11.968,21.28,16.634-5.051.9,24.956-.536,24.27L770.4,629.425l-12.634,31.77.063,8.267,14.08-8.267,28.373-16.662L833,625.307l9.725-5.712-10.371-5.886L799.925,595.3,771.3,579.068,757.1,571Z" transform="translate(-744.7 -541.868)"/><path class="b" d="M460.5,290.535l10.125-5.745,10.125,5.745-10.125,5.946Z" transform="translate(-344.721 -213.168)"/><path class="a" d="M1177.656,739.709l9.873,5.6-9.873,5.8-9.873-5.8,9.873-5.6m0-.289-10.376,5.888,10.376,6.094,10.376-6.094Z" transform="translate(-1051.752 -667.944)"/><path class="b" d="M531.76,330.242l11-6.461,11,6.461-11,6.461Z" transform="translate(-398.064 -242.355)"/><path class="a" d="M1249.8,778.7l10.756,6.316-10.756,6.316-10.756-6.316L1249.8,778.7m0-.292-11.251,6.607,11.251,6.615,11.251-6.607-11.251-6.607Z" transform="translate(-1105.104 -697.131)"/><path class="c" d="M542.021,241.79l-11.251,6.384,11.251,6.386,11.251-6.386" transform="translate(-397.323 -180.979)"/><path class="b" d="M311,291.643l9.464-5.373,10.12,5.745-9.474,5.564Z" transform="translate(-232.808 -214.276)"/><path class="a" d="M1027.5,741.169l9.868,5.6-9.219,5.418-9.858-5.783,9.212-5.227m0-.289-9.715,5.514,10.361,6.067,9.725-5.712L1027.5,740.87Z" transform="translate(-939.847 -669.029)"/><path class="b" d="M382.26,330.242l11-6.461,11,6.461-11,6.461Z" transform="translate(-286.152 -242.355)"/><path class="a" d="M1100.286,778.7l10.756,6.316-10.756,6.316-10.761-6.316,10.756-6.316m0-.292-11.251,6.607,11.256,6.615,11.251-6.607-11.251-6.607Z" transform="translate(-993.176 -697.131)"/><path class="c" d="M478.522,373.707l-11.251,6.607-11.251-6.607,11.251-6.607Z" transform="translate(-341.367 -274.783)"/><path class="b" d="M382.28,248.608l11-6.238,11,6.238-11,6.24Z" transform="translate(-286.167 -181.413)"/><path class="a" d="M1100.3,697.289l10.74,6.094-10.74,6.1-10.741-6.1,10.741-6.094m0-.289-11.251,6.384,11.251,6.386,11.251-6.386Z" transform="translate(-993.191 -636.189)"/><path class="c" d="M467.271,199.36l-11.251,6.386,11.251,6.386,11.251-6.386" transform="translate(-341.367 -149.217)"/><path class="b" d="M622.65,294.148l8.863-5.028,8.206,4.656-8.853,5.2Z" transform="translate(-466.103 -216.409)"/><path class="a" d="M1338.544,744.077l7.955,4.526-8.6,5.051-7.965-4.679,8.611-4.885m0-.289-9.114,5.172,8.468,4.973,9.1-5.345Z" transform="translate(-1173.135 -671.222)"/><path class="d" d="M351,77.991l67.952-38.565L486.9.86,486.807,13.4,441.328,39.207,373,77.986l67.748,39.785,45.095,26.485-.1,12.865Z" transform="translate(-262.751 -0.624)"/><path class="d" d="M1193.821,455.583l-.093,12.247L1148.314,493.6l-68.14,38.679-.38.216.375.219,67.559,39.674,45.035,26.447-.1,12.571-67.185-39.458L1058.3,532.5l67.76-38.467,67.763-38.467m.252-.432-68.138,38.686L1057.8,532.487l67.559,39.674,67.562,39.677.1-13.157-45.16-26.512L1080.3,532.495l68.138-38.678,45.542-25.849.1-12.822Z" transform="translate(-969.798 -455.13)"/><path class="d" d="M500.5,77.991l67.952-38.565L636.4.86,636.307,13.4,590.828,39.207,522.5,77.986l112.843,66.269-.1,12.865Z" transform="translate(-374.664 -0.624)"/><path class="d" d="M1343.321,455.605l-.093,12.247L1320.759,480.6l-22.945,13.024-68.14,38.679-.38.216.375.219,67.564,39.667,22.751,13.361,22.283,13.086-.1,12.571-22.027-12.936-45.163-26.515L1207.8,532.52l67.761-38.467L1321.1,468.2l22.221-12.611m.251-.432-22.6,12.822-45.54,25.856L1207.3,532.51l67.557,39.682,45.158,26.52,22.4,13.157.1-13.157-22.4-13.159-22.751-13.36L1229.8,532.517l68.135-38.679,22.945-13.024,22.6-12.823.1-12.822Z" transform="translate(-1081.71 -455.152)"/><path class="d" d="M662.65,165.071,747.9,116.69l-.058,7.812-11.457,23.684-17.154-7.605-.445,22.774.078,26.874,17.521-11.359,10.851,27.815-.06,8.023Z" transform="translate(-496.046 -87.332)"/><path class="d" d="M1454.8,571.443l-.058,7.565-11.392,23.551-16.87-7.48-.344-.153v.377L1425.7,617.9l.078,26.651v.463l.387-.252,17.19-11.153,10.786,27.656-.058,7.794-13.7-8.046-28.373-16.662-42.073-24.707,42.435-24.084,28.609-16.259,13.828-7.844m.251-.432-14.2,8.058-28.614,16.239-42.814,24.3,42.448,24.928L1440.25,661.2l14.08,8.267.063-8.267-10.917-27.978-17.456,11.314-.078-26.651.443-22.585,17.1,7.578L1455,579.066l.053-8.066Z" transform="translate(-1203.078 -541.868)"/></g></svg>