<svg id="Layer_1" data-name="Layer 1" xmlns="http://www.w3.org/2000/svg" viewBox="0 0 191.86 172.92"><defs><style>.cls-1{fill:#6a73e2;}</style></defs><title>send</title><path class="cls-1" d="M152.92,158.49l117-68.69,7.57-4.44L257.47,74l-8.33-4.73L151.86,14.08,151.75.25l75,42.55,34.68,19.69,8.33,4.72,12.41,7.05,19.57,11.1L153,172.69Z" transform="translate(-110.13 0)"/><path class="cls-1" d="M151.89.49l74.78,42.45,22.27,12.63,12.41,7,8.32,4.71,12.42,7,10.44,5.92,8.91,5.06L291.81,91l-9.72,5.71L269.67,104l-8.32,4.89-12.43,7.29-21.63,12.7-74.12,43.54-.11-13.87,49.7-29.19,34-20,12.42-7.29,8.32-4.89L270,89.93l7.35-4.32.42-.24-.42-.24L270,81l-12.43-7.06-8.32-4.71-12.41-7.05L202.1,42.45,152,14,151.9.48M151.63,0l.1,14.15L202,42.68l34.68,19.68,12.41,7,8.33,4.72,12.41,7,7.36,4.17-7.36,4.32L257.41,97l-8.33,4.88-12.41,7.3-34,20L152.8,158.4l.1,14.52,74.56-43.78,21.62-12.7,12.42-7.29,8.32-4.89L282.23,97,292,91.26,302,85.36l-9.33-5.3-10.44-5.93-12.42-7-8.32-4.72-12.42-7L226.81,42.67,151.62,0Z" transform="translate(-110.13 0)"/><path class="cls-1" d="M111.45,158.49l117-68.69L236,85.36l-75.4-42.8L110.38,14.08,110.28.25l118,67,12.41,7.05,19.57,11.1L249,92l-8.33,4.88L111.55,172.69Z" transform="translate(-110.13 0)"/><path class="cls-1" d="M110.41.49,134.94,14.4l50.25,28.52,43,24.42,12.42,7,8.32,4.72,11,6.26-11,6.48-8.33,4.89L228.18,104,185.83,128.9,136,158.16l-24.31,14.28-.1-13.88,24.59-14.44,25.1-14.74L216.06,97.2l12.42-7.29,7.35-4.32.42-.24-.42-.24-7.36-4.18-12.42-7L160.63,42.44,135.31,28.07,110.51,14,110.41.49M110.14,0l.1,14.15,24.94,14.15,25.31,14.37,55.42,31.45,12.42,7.05,7.36,4.17-7.36,4.32L215.91,97l-54.77,32.18L136,143.88,111.3,158.41l.11,14.51,24.72-14.51L186,129.14l42.36-24.87L240.74,97l8.33-4.89,11.45-6.72-11.45-6.5-8.33-4.72-12.41-7.06-43-24.41L135.07,14.16,110.13,0Z" transform="translate(-110.13 0)"/><path class="cls-1" d="M124.69,131.69l13.86-34.84L156,113.59l.6-27.1-1-27.72-18.42,5.6L124,41,124,32.38,218,85.77,207.51,92l-82.75,48.6Z" transform="translate(-110.13 0)"/><path class="cls-1" d="M124.1,32.62l15.26,8.66L170.93,59.2l35.8,20.31,11,6.26-10.32,6.06L171.33,113,140,131.43,124.9,140.3l-.06-8.6,13.77-34.62,17.07,16.38.45.44,0-.63.59-26.76v0l-1-27.53V58.6l-.34.1-18.14,5.51L124.18,41l-.06-8.34m-.28-.48.07,8.89,13.2,23.49L155.47,59l1,27.54-.59,26.78L138.5,96.61l-14,35.06.07,9.12,15.54-9.12,31.31-18.39,36.11-21.22,10.73-6.3-11.44-6.5L171.08,59,139.49,41l-15.67-8.9Z" transform="translate(-110.13 0)"/></svg>